<svg version="1.1" xmlns="http://www.w3.org/2000/svg" xmlns:xlink="http://www.w3.org/1999/xlink" width="942" height="780">
<linearGradient id="grad" x1="40%" y1="50%" x2="70%" y2="10%">
    <stop offset="0%" stop-color="#ff8f5a" stop-opacity="1"/>
    <stop offset="100%" stop-color="#ff2f96" stop-opacity="1"/>
</linearGradient> 
<defs/>
<g><path fill="url(#grad)" stroke="none" paint-order="stroke fill markers" fill-rule="evenodd" d=" M 406.52034759521484 52.406574726104736 C 513.2609939575195 1.9514920711517334 613.9937210083008 1.7958953380584717 698.2119369506836 39.67073345184326 C 782.6474761962891 77.23810815811157 850.5683898925781 152.8357400894165 896.7034149169922 246.78543829917908 C 940.9728240966797 341.6687169075012 940.9261322021484 443.5838665962219 904.7708129882812 526.0272219181061 C 868.1147003173828 609.6997203826904 807.1046447753906 672.7822949886322 723.966064453125 717.8037478923798 C 679.9356079101562 740.4725577831268 633.6542129516602 756.0023906230927 574.8178482055664 765.5349996089935 C 516.7571640014648 774.9288859367371 446.1415100097656 778.3253707885742 371.32484436035156 773.4794917106628 C 222.85114288330078 764.1582527160645 56.44947052001953 720.3975596427917 21.357765197753906 621.6897275447845 C 1.4714813232421875 572.6765789985657 13.954353332519531 516.4915933609009 38.678855895996094 459.95012068748474 C 63.808937072753906 403.32605385780334 101.18064880371094 346.34567761421204 140.41889190673828 293.8347997665405 C 180.06282806396484 241.2415053844452 221.57329559326172 193.11788702011108 264.30908203125 152.30553889274597 C 307.45044708251953 111.41041898727417 351.8170166015625 77.82656931877136 406.52034759521484 52.406574726104736 C 406.52034759521484 52.406574726104736 406.52034759521484 52.406574726104736 406.52034759521484 52.406574726104736 Z"/></g></svg>